<svg width="1600" height="1000" viewBox="0 0 1600 1000" fill="none" xmlns="http://www.w3.org/2000/svg">
  <rect width="1600" height="1000" fill="#0D1420"/>
  <rect x="24" y="24" width="196" height="952" rx="20" fill="#121C2A" stroke="#253248"/>
  <rect x="252" y="24" width="968" height="952" rx="22" fill="#101722" stroke="#243247"/>
  <rect x="1244" y="24" width="332" height="952" rx="20" fill="#121C2A" stroke="#253248"/>

  <rect x="52" y="52" width="44" height="44" rx="12" fill="#39C6B4"/>
  <text x="74" y="79" text-anchor="middle" font-size="21" font-family="Arial, sans-serif" font-weight="700" fill="#0E1622">K</text>
  <text x="110" y="71" font-size="28" font-family="Arial, sans-serif" font-weight="700" fill="#E8F0F7">K-Storm</text>
  <text x="110" y="95" font-size="13" font-family="Arial, sans-serif" fill="#7F93AB">Agent Observatory</text>

  <rect x="44" y="134" width="156" height="54" rx="14" fill="#1A2637" stroke="#2C3B54"/>
  <rect x="44" y="200" width="156" height="54" rx="14" fill="#39C6B4" fill-opacity="0.12" stroke="#39C6B4"/>
  <rect x="44" y="266" width="156" height="54" rx="14" fill="#1A2637" stroke="#2C3B54"/>
  <rect x="44" y="332" width="156" height="54" rx="14" fill="#1A2637" stroke="#2C3B54"/>
  <text x="72" y="167" font-size="15" font-family="Arial, sans-serif" font-weight="700" fill="#D6E1EC">总览</text>
  <text x="72" y="233" font-size="15" font-family="Arial, sans-serif" font-weight="700" fill="#DFFAF7">讨论舞台</text>
  <text x="72" y="299" font-size="15" font-family="Arial, sans-serif" font-weight="700" fill="#D6E1EC">报告输出</text>
  <text x="72" y="365" font-size="15" font-family="Arial, sans-serif" font-weight="700" fill="#D6E1EC">历史记录</text>

  <text x="284" y="74" font-size="32" font-family="Arial, sans-serif" font-weight="700" fill="#EAF2FA">多 Agent 讨论舞台</text>
  <text x="284" y="102" font-size="14" font-family="Arial, sans-serif" fill="#8194AA">中央区域只聚焦当前最关键的信息，右侧承载次级情报</text>

  <rect x="284" y="134" width="180" height="88" rx="16" fill="#162132" stroke="#2A3951"/>
  <rect x="482" y="134" width="180" height="88" rx="16" fill="#162132" stroke="#2A3951"/>
  <rect x="680" y="134" width="180" height="88" rx="16" fill="#162132" stroke="#2A3951"/>
  <rect x="878" y="134" width="180" height="88" rx="16" fill="#162132" stroke="#2A3951"/>
  <text x="308" y="168" font-size="13" font-family="Arial, sans-serif" fill="#8DA2BA">运行状态</text>
  <text x="308" y="200" font-size="28" font-family="Arial, sans-serif" font-weight="700" fill="#39C6B4">RUNNING</text>
  <text x="506" y="168" font-size="13" font-family="Arial, sans-serif" fill="#8DA2BA">轮次</text>
  <text x="506" y="200" font-size="28" font-family="Arial, sans-serif" font-weight="700" fill="#EAF2FA">3</text>
  <text x="704" y="168" font-size="13" font-family="Arial, sans-serif" fill="#8DA2BA">消息数</text>
  <text x="704" y="200" font-size="28" font-family="Arial, sans-serif" font-weight="700" fill="#EAF2FA">12</text>
  <text x="902" y="168" font-size="13" font-family="Arial, sans-serif" fill="#8DA2BA">文档数</text>
  <text x="902" y="200" font-size="28" font-family="Arial, sans-serif" font-weight="700" fill="#F2B84B">4</text>

  <rect x="284" y="252" width="904" height="684" rx="20" fill="#111B29" stroke="#233149"/>
  <text x="316" y="294" font-size="18" font-family="Arial, sans-serif" font-weight="700" fill="#EAF2FA">Round 2 · 观点对冲区</text>
  <text x="316" y="320" font-size="13" font-family="Arial, sans-serif" fill="#8194AA">每个 Agent 形成独立可扫描的信号柱，强调差异与状态</text>

  <rect x="316" y="348" width="198" height="556" rx="18" fill="#152233" stroke="#28415A"/>
  <rect x="534" y="348" width="198" height="556" rx="18" fill="#152233" stroke="#28415A"/>
  <rect x="752" y="348" width="198" height="556" rx="18" fill="#152233" stroke="#28415A"/>
  <rect x="970" y="348" width="198" height="556" rx="18" fill="#152233" stroke="#28415A"/>
  <rect x="316" y="348" width="198" height="8" rx="4" fill="#39C6B4"/>
  <rect x="534" y="348" width="198" height="8" rx="4" fill="#6D7CFF"/>
  <rect x="752" y="348" width="198" height="8" rx="4" fill="#F2B84B"/>
  <rect x="970" y="348" width="198" height="8" rx="4" fill="#F06B9A"/>
  <text x="340" y="388" font-size="16" font-family="Arial, sans-serif" font-weight="700" fill="#EAF2FA">Novelty</text>
  <text x="558" y="388" font-size="16" font-family="Arial, sans-serif" font-weight="700" fill="#EAF2FA">Mechanism</text>
  <text x="776" y="388" font-size="16" font-family="Arial, sans-serif" font-weight="700" fill="#EAF2FA">Feasibility</text>
  <text x="994" y="388" font-size="16" font-family="Arial, sans-serif" font-weight="700" fill="#EAF2FA">Reviewer</text>
  <text x="340" y="418" font-size="12" font-family="Arial, sans-serif" fill="#8CA0B9">信号强度 / 创新方向</text>
  <text x="558" y="418" font-size="12" font-family="Arial, sans-serif" fill="#8CA0B9">机制闭环 / 因果链</text>
  <text x="776" y="418" font-size="12" font-family="Arial, sans-serif" fill="#8CA0B9">实验资源 / 风险控制</text>
  <text x="994" y="418" font-size="12" font-family="Arial, sans-serif" fill="#8CA0B9">漏洞 / 质疑 / 反证</text>
  <rect x="340" y="446" width="150" height="10" rx="5" fill="#22354A"/>
  <rect x="340" y="474" width="126" height="10" rx="5" fill="#22354A"/>
  <rect x="340" y="502" width="158" height="10" rx="5" fill="#22354A"/>
  <rect x="340" y="546" width="148" height="170" rx="14" fill="#0F1825" stroke="#223248"/>
  <text x="350" y="578" font-size="12" font-family="Arial, sans-serif" fill="#90A4BC">主要结论摘录</text>

  <rect x="1268" y="52" width="284" height="116" rx="16" fill="#172436" stroke="#29405D"/>
  <text x="1294" y="88" font-size="17" font-family="Arial, sans-serif" font-weight="700" fill="#EAF2FA">流程时间线</text>
  <circle cx="1304" cy="122" r="6" fill="#39C6B4"/>
  <line x1="1304" y1="122" x2="1304" y2="150" stroke="#38516E"/>
  <circle cx="1304" cy="160" r="6" fill="#39C6B4"/>
  <line x1="1304" y1="160" x2="1304" y2="188" stroke="#38516E"/>
  <circle cx="1304" cy="198" r="6" fill="#F2B84B"/>
  <text x="1324" y="126" font-size="13" font-family="Arial, sans-serif" fill="#B5C4D5">Template validated</text>
  <text x="1324" y="164" font-size="13" font-family="Arial, sans-serif" fill="#B5C4D5">Intake completed</text>
  <text x="1324" y="202" font-size="13" font-family="Arial, sans-serif" fill="#F6D69A">Debate running</text>

  <rect x="1268" y="188" width="284" height="194" rx="16" fill="#172436" stroke="#29405D"/>
  <text x="1294" y="224" font-size="17" font-family="Arial, sans-serif" font-weight="700" fill="#EAF2FA">模型分配</text>
  <rect x="1292" y="246" width="236" height="34" rx="10" fill="#101925" stroke="#27364D"/>
  <rect x="1292" y="288" width="236" height="34" rx="10" fill="#101925" stroke="#27364D"/>
  <rect x="1292" y="330" width="236" height="34" rx="10" fill="#101925" stroke="#27364D"/>
  <text x="1308" y="268" font-size="12" font-family="Arial, sans-serif" fill="#90A4BC">Intake · GLM-5.1</text>
  <text x="1308" y="310" font-size="12" font-family="Arial, sans-serif" fill="#90A4BC">Debate · Qwen / DeepSeek</text>
  <text x="1308" y="352" font-size="12" font-family="Arial, sans-serif" fill="#90A4BC">Output · DeepSeek Pro</text>

  <rect x="1268" y="404" width="284" height="176" rx="16" fill="#172436" stroke="#29405D"/>
  <text x="1294" y="440" font-size="17" font-family="Arial, sans-serif" font-weight="700" fill="#EAF2FA">导出中心</text>
  <rect x="1292" y="468" width="236" height="42" rx="12" fill="#39C6B4" fill-opacity="0.16" stroke="#39C6B4"/>
  <rect x="1292" y="520" width="236" height="42" rx="12" fill="#101925" stroke="#27364D"/>
  <text x="1410" y="494" text-anchor="middle" font-size="14" font-family="Arial, sans-serif" font-weight="700" fill="#DDF9F5">导出 Markdown</text>
  <text x="1410" y="546" text-anchor="middle" font-size="14" font-family="Arial, sans-serif" font-weight="700" fill="#B5C4D5">导出 Bundle</text>

  <rect x="1268" y="602" width="284" height="326" rx="16" fill="#172436" stroke="#29405D"/>
  <text x="1294" y="638" font-size="17" font-family="Arial, sans-serif" font-weight="700" fill="#EAF2FA">历史记录</text>
  <rect x="1292" y="664" width="236" height="54" rx="12" fill="#101925" stroke="#27364D"/>
  <rect x="1292" y="730" width="236" height="54" rx="12" fill="#101925" stroke="#27364D"/>
  <rect x="1292" y="796" width="236" height="54" rx="12" fill="#101925" stroke="#27364D"/>
  <text x="1308" y="695" font-size="12" font-family="Arial, sans-serif" fill="#B5C4D5">Run #20260508-01</text>
  <text x="1308" y="761" font-size="12" font-family="Arial, sans-serif" fill="#B5C4D5">Run #20260507-05</text>
  <text x="1308" y="827" font-size="12" font-family="Arial, sans-serif" fill="#B5C4D5">Run #20260507-02</text>

  <text x="24" y="994" font-size="13" font-family="Arial, sans-serif" fill="#7F93AB">Proposal C · Agent Observatory · 更像多 Agent 研究实验平台，辨识度最强</text>
</svg>
